<svg xmlns="http://www.w3.org/2000/svg" xmlns:xlink="http://www.w3.org/1999/xlink" width="396.529" height="360" viewBox="0 0 396.529 360">
  <defs>
    <clipPath id="clip-path">
      <path id="Path_159062" data-name="Path 159062" d="M394.392.1,171.452,0H-.362s-3.992,143.692,0,173.418c7.351,54.744,64.394,93.467,135.385,104.219s92.449,54.838,151.576,61.254c48.76,5.294,80.025-1.262,107.794-16.6V.1Z" transform="translate(-3.487)" fill="none"/>
    </clipPath>
  </defs>
  <g id="Layer_2" data-name="Layer 2" transform="translate(-109.992 -34.66)">
    <g id="OBJECTS" transform="translate(111.766 34.66)">
      <g id="Group_231657" data-name="Group 231657" transform="translate(3.849)" clip-path="url(#clip-path)">
        <path id="Path_159041" data-name="Path 159041" d="M387.228,0H171.452c-1.4,16.748-11.571,47.919-64.141,64.515C33.048,88.042-2.926,118.956,4.426,173.7s59.607,93.185,130.6,103.937,92.449,54.838,151.576,61.254c48.76,5.294,80.025-1.262,107.794-16.6V7.164A7.164,7.164,0,0,0,387.228,0Z" transform="translate(-3.487)" fill="#ebf1ff"/>
        <path id="Path_159042" data-name="Path 159042" d="M237.189,105.329l-38.826,12.05L168.536,99.637a.806.806,0,0,1,.175-1.461h0a25.713,25.713,0,0,1,11.173-.9Z" transform="translate(24.3 16.374)" fill="#bbcdf9"/>
        <path id="Path_159043" data-name="Path 159043" d="M175.33,97l27.98,16.643L232,104.725l-53.33-7.492A24.545,24.545,0,0,0,175.33,97Z" transform="translate(25.513 16.369)" fill="#aec1fc"/>
        <path id="Path_159044" data-name="Path 159044" d="M123.256,129.252l-.491.152a14.726,14.726,0,0,1-11.021-.923L75.735,110.236a6.393,6.393,0,0,0-4.675-.4l-2.513.783a.83.83,0,0,0-.514,1.169l13.02,30.621,1.893,4.406,41.783-12.973Z" transform="translate(7.391 18.491)" fill="#90a5fc"/>
        <path id="Path_159045" data-name="Path 159045" d="M158.837,155.306l159.734-49.59a127.278,127.278,0,0,0,26.262-11.524l21.038-12.2a4.465,4.465,0,0,0,.842-.643h0a4.43,4.43,0,0,0-2.5-7.585L340.683,70.77a32.889,32.889,0,0,0-13.932,1.169L81.664,148.06a2.828,2.828,0,0,0-1.414,1.005h0a2.805,2.805,0,0,0,1.379,4.336l4.266,1.379a120.265,120.265,0,0,0,72.942.526Z" transform="translate(9.374 11.896)" fill="#738ee5"/>
        <path id="Path_159046" data-name="Path 159046" d="M148.384,149.463l177.1-55A141.419,141.419,0,0,0,354.6,81.687l11.9-6.907a4.336,4.336,0,0,0-2.338-1.029l-23.48-2.98a32.865,32.865,0,0,0-13.932,1.169L81.66,148.06a2.828,2.828,0,0,0-1.414,1.005,2.77,2.77,0,0,0,0,3.249,133.238,133.238,0,0,0,68.138-2.852Z" transform="translate(9.378 11.896)" fill="#fff"/>
        <path id="Path_159047" data-name="Path 159047" d="M297.345,78.065l18.84-5.844L304.5,70.69l-8.625,2.7a2.489,2.489,0,0,0-1.636,3.109h0A2.489,2.489,0,0,0,297.345,78.065Z" transform="translate(45.56 11.929)" fill="#aec1fc"/>
        <rect id="Rectangle_27661" data-name="Rectangle 27661" width="3.668" height="3.668" rx="0.895" transform="translate(317.047 100) rotate(162.646)" fill="#aec1fc"/>
        <rect id="Rectangle_27662" data-name="Rectangle 27662" width="3.647" height="3.647" rx="0.89" transform="translate(308.609 102.621) rotate(162.75)" fill="#aec1fc"/>
        <rect id="Rectangle_27663" data-name="Rectangle 27663" width="3.668" height="3.668" rx="0.895" transform="translate(296.409 106.351) rotate(162.646)" fill="#aec1fc"/>
        <rect id="Rectangle_27664" data-name="Rectangle 27664" width="3.647" height="3.647" rx="0.89" transform="translate(287.901 109.049) rotate(162.75)" fill="#aec1fc"/>
        <rect id="Rectangle_27665" data-name="Rectangle 27665" width="3.647" height="3.647" rx="0.89" transform="translate(277.537 112.236) rotate(162.75)" fill="#aec1fc"/>
        <rect id="Rectangle_27666" data-name="Rectangle 27666" width="3.647" height="3.647" rx="0.89" transform="translate(267.177 115.446) rotate(162.75)" fill="#aec1fc"/>
        <rect id="Rectangle_27667" data-name="Rectangle 27667" width="3.647" height="3.647" rx="0.89" transform="translate(256.818 118.691) rotate(162.75)" fill="#aec1fc"/>
        <rect id="Rectangle_27668" data-name="Rectangle 27668" width="3.647" height="3.647" rx="0.89" transform="translate(246.458 121.901) rotate(162.75)" fill="#aec1fc"/>
        <rect id="Rectangle_27669" data-name="Rectangle 27669" width="3.647" height="3.647" rx="0.89" transform="translate(236.109 125.119) rotate(162.75)" fill="#aec1fc"/>
        <rect id="Rectangle_27670" data-name="Rectangle 27670" width="3.647" height="3.647" rx="0.89" transform="translate(225.749 128.317) rotate(162.75)" fill="#aec1fc"/>
        <rect id="Rectangle_27671" data-name="Rectangle 27671" width="3.647" height="3.647" rx="0.89" transform="translate(215.389 131.538) rotate(162.75)" fill="#aec1fc"/>
        <rect id="Rectangle_27672" data-name="Rectangle 27672" width="3.668" height="3.668" rx="0.895" transform="translate(203.549 134.814) rotate(162.646)" fill="#aec1fc"/>
        <rect id="Rectangle_27673" data-name="Rectangle 27673" width="3.647" height="3.647" rx="0.89" transform="translate(194.666 137.97) rotate(162.75)" fill="#aec1fc"/>
        <path id="Path_159048" data-name="Path 159048" d="M253.16,102.52l-59.782,18.56-21.961,47.65a1.66,1.66,0,0,0,2,2.338l1.461-.444a28.412,28.412,0,0,0,10.741-6.171Z" transform="translate(24.821 17.301)" fill="#bbcdf9"/>
        <path id="Path_159049" data-name="Path 159049" d="M182.022,165.235a1.718,1.718,0,0,0-.152.83c.69-.538,1.367-1.087,2.01-1.671l67.542-61.874-47.264,14.668Z" transform="translate(26.616 17.301)" fill="#aec1fc"/>
        <path id="Path_159050" data-name="Path 159050" d="M208.074,169.2l-21.038,6.533L178.75,193.7l3.9-1.215Z" transform="translate(-97.74 -11.956)" fill="#90a5fc"/>
        <path id="Path_159051" data-name="Path 159051" d="M89.22,92.87c1.169-2.244,4.535-3.857,8.45-3.857a13.126,13.126,0,0,1,3.086.362,6.288,6.288,0,0,1,3.4-3.343c1.04-5.049,7.8-8.953,15.989-8.953,6.183,0,11.547,2.221,14.259,5.481a14.6,14.6,0,0,1,5.1-.877c5.633,0,10.2,2.922,10.2,6.522a4.126,4.126,0,0,1-.094.842h.923c3.915,0,7.235,1.613,8.45,3.857Z" transform="translate(10.981 13.008)" fill="#fff"/>
        <path id="Path_159052" data-name="Path 159052" d="M-14.81,123.87c1.169-2.244,4.523-3.857,8.438-3.857a13.162,13.162,0,0,1,3.1.362,6.241,6.241,0,0,1,3.436-3.343c1.04-5.049,7.8-8.953,15.989-8.953,6.183,0,11.536,2.221,14.259,5.481a14.586,14.586,0,0,1,5.084-.877c5.575-.023,10.25,2.922,10.25,6.522a4.126,4.126,0,0,1-.094.841h.923c3.915,0,7.235,1.613,8.438,3.857Z" transform="translate(-6.575 18.239)" fill="#fff"/>
        <path id="Path_159053" data-name="Path 159053" d="M228.81,143.218c1.169-2.232,4.523-3.845,8.438-3.845a13.883,13.883,0,0,1,3.1.351,6.206,6.206,0,0,1,3.4-3.331c1.052-5.061,7.807-8.953,16-8.953,6.171,0,11.536,2.209,14.247,5.47a14.925,14.925,0,0,1,5.1-.877c5.645,0,10.215,2.922,10.215,6.522a3.952,3.952,0,0,1-.093.842h.912c3.915,0,7.246,1.613,8.45,3.845Z" transform="translate(34.538 21.506)" fill="#fff"/>
        <path id="Path_159054" data-name="Path 159054" d="M259.457,76.782c-1.169-2.267-4.593-3.9-8.567-3.9a13.382,13.382,0,0,0-3.132.362,6.393,6.393,0,0,0-3.506-3.389c-1.052-5.131-7.9-9.081-16.222-9.081-6.265,0-11.688,2.244-14.469,5.552a15.007,15.007,0,0,0-5.166-.888c-5.727,0-10.355,2.969-10.355,6.627a4.241,4.241,0,0,0,.093.853H197.2c-3.974,0-7.34,1.636-8.567,3.9Z" transform="translate(27.757 10.255)" fill="#fff"/>
        <path id="Path_159055" data-name="Path 159055" d="M242,23.821c.97-1.788,3.623-3.074,6.744-3.074a10.519,10.519,0,0,1,2.466.281,5.026,5.026,0,0,1,2.723-2.665c.842-4.032,6.229-7.153,12.775-7.153,4.932,0,9.21,1.777,11.384,4.371a11.688,11.688,0,0,1,4.067-.7c4.5,0,8.181,2.338,8.181,5.213a3.246,3.246,0,0,1-.07.678h.736c3.121,0,5.774,1.286,6.744,3.074Z" transform="translate(36.763 1.892)" fill="#fff"/>
        <path id="Path_159056" data-name="Path 159056" d="M166.65,15.808a3.366,3.366,0,0,1,2.992-1.367,4.675,4.675,0,0,1,1.087.129A2.232,2.232,0,0,1,171.9,13.4c.362-1.788,2.758-3.179,5.657-3.179a6.685,6.685,0,0,1,5.049,1.94,5.423,5.423,0,0,1,1.8-.3c2,0,3.611,1.029,3.611,2.338a2.465,2.465,0,0,1,0,.3h.316a3.366,3.366,0,0,1,3.015,1.309Z" transform="translate(24.048 1.723)" fill="#fff"/>
        <path id="Path_159057" data-name="Path 159057" d="M372.465,120.981c-1.1-2.034-4.114-3.506-7.667-3.506a11.979,11.979,0,0,0-2.8.327,5.7,5.7,0,0,0-3.1-3.039c-.947-4.582-7.083-8.123-14.528-8.123-5.61,0-10.519,2.01-12.938,4.967a13.488,13.488,0,0,0-4.675-.795c-5.119,0-9.268,2.653-9.268,5.926a4.094,4.094,0,0,0,.082.76h-.83c-3.565,0-6.58,1.461-7.679,3.506Z" transform="translate(48.08 17.996)" fill="#fff"/>
        <rect id="Rectangle_27674" data-name="Rectangle 27674" width="467.49" height="83.823" transform="translate(-13.694 273.08)" fill="#bdd4ff"/>
        <rect id="Rectangle_27675" data-name="Rectangle 27675" width="467.49" height="18.116" transform="translate(-13.694 242.154)" fill="#bdd4ff"/>
        <path id="Path_171525" data-name="Path 171525" d="M0,0H411.425V350.638H0Z" transform="translate(-20.531)" fill="#bbdefb" opacity="0.1"/>
        <g id="Group_231656" data-name="Group 231656" transform="translate(-127.905 -18.186)" opacity="0.39">
          <path id="Path_159058" data-name="Path 159058" d="M89.874,385.037H71.56L309.367,19.1h18.314Z" transform="translate(12.076 -19.1)" fill="#fff"/>
          <path id="Path_159059" data-name="Path 159059" d="M347.654,385.037H329.34L567.147,19.1h18.314Z" transform="translate(55.578 -19.1)" fill="#fff"/>
          <path id="Path_159060" data-name="Path 159060" d="M326.013,385.037H257.15L494.957,19.1h68.851Z" transform="translate(43.395 -19.1)" fill="#fff"/>
          <path id="Path_159061" data-name="Path 159061" d="M68.851,385.037H0L237.807,19.1h68.851Z" transform="translate(0 -19.1)" fill="#fff"/>
        </g>
        <rect id="Rectangle_27677" data-name="Rectangle 27677" width="10.063" height="386.823" transform="translate(82.202 -40.509)" fill="#fff"/>
        <rect id="Rectangle_27678" data-name="Rectangle 27678" width="10.063" height="386.823" transform="translate(340.953 -40.509)" fill="#fff"/>
        <rect id="Rectangle_27679" data-name="Rectangle 27679" width="10.297" height="536.178" transform="translate(484.686 55.399) rotate(90)" fill="#fff"/>
      </g>
      <ellipse id="Ellipse_2382" data-name="Ellipse 2382" cx="90.999" cy="8.871" rx="90.999" ry="8.871" transform="translate(92.783 342.258)" fill="#ebf1ff"/>
      <path id="Path_159063" data-name="Path 159063" d="M194,193.86l-32.316,8.181s8.345,36.231,11.594,49.508c3.331,13.593,1.484,57.269,1.484,57.269H184l4.991-57.491Z" transform="translate(27.058 32.715)" fill="#1b173d"/>
      <path id="Path_159064" data-name="Path 159064" d="M184.883,143.573s3.3,11.372,8.614,30.668c0,0,6.861,2.489,25.42,3.81l-.584,6.159s-20.465,3.7-31.743-.947S165.82,137.331,184.883,143.573Z" transform="translate(29.135 24.12)" fill="#ffa689"/>
      <path id="Path_159065" data-name="Path 159065" d="M304.57,215.253l9.677,11.208,15.638-20.36-6.323-12.2Z" transform="translate(-72.658 -7.787)" fill="#4764cf"/>
      <path id="Path_159066" data-name="Path 159066" d="M303.11,219.371l16.433-22.031,10.589,8.181-15.638,20.36Z" transform="translate(-72.904 -7.207)" fill="#5172ed"/>
      <path id="Path_159067" data-name="Path 159067" d="M219.373,173.6a.526.526,0,0,0-.795-.281,4.488,4.488,0,0,1-2.828,1.251c-1.59,0-3.682-1.064-4.359-.339,0,0-3.436,4.383,0,8.719C211.379,182.953,221.921,185.7,219.373,173.6Z" transform="translate(35.189 29.234)" fill="#ffa689"/>
      <path id="Path_159068" data-name="Path 159068" d="M179.569,177.228a32.853,32.853,0,0,0,14.96-7.013s-2.338-12.856-5.7-20.558-8.544-14.5-17.064-9.467S165.73,156.763,179.569,177.228Z" transform="translate(27.928 23.365)" fill="#d07919"/>
      <path id="Path_159069" data-name="Path 159069" d="M154.25,172.027a32.936,32.936,0,0,0,15.918,4.441s6.568-11.267,9.1-19.3,2.992-16.561-6.744-18.314S157.125,147.483,154.25,172.027Z" transform="translate(25.804 23.401)" fill="#5172ed"/>
      <path id="Path_159070" data-name="Path 159070" d="M191.676,197.132s-19.974-6.755-32.363,4.418a96.7,96.7,0,0,0,9.1,23.024c11.547,21.2,17.461,28.05,17.461,28.05s-12.587,11.2-36.839,39.188c0,0,1.519,5.727,6.4,7.562,0,0,35.53-33.52,46.259-42.461,3.506-2.922,2.793-5.131,1.414-11.594C200.781,234.392,193.044,202.123,191.676,197.132Z" transform="translate(24.925 32.926)" fill="#271f50"/>
      <path id="Path_159071" data-name="Path 159071" d="M171.189,126.955l-.432,8.766s6.884,5.668,12.552,5.4l2.618-11.688L169.88,118.54Z" transform="translate(28.442 20.004)" fill="#ffa689"/>
      <path id="Path_159072" data-name="Path 159072" d="M173.8,124.43s3.658,6.826,10.332,8.906l1.1-4.9Z" transform="translate(29.103 20.998)" fill="#ed8a6d"/>
      <path id="Path_159073" data-name="Path 159073" d="M164.221,230.128l-16.363-12.377a2.092,2.092,0,0,1-.4-2.922h0a2.08,2.08,0,0,1,2.922-.4l16.351,12.424a2.069,2.069,0,0,1,.409,2.91h0a2.08,2.08,0,0,1-2.922.362Z" transform="translate(24.587 36.114)" fill="#060412"/>
      <line id="Line_1263" data-name="Line 1263" x1="35.869" y2="47.241" transform="translate(139.358 255.244)" fill="none" stroke="#060412" stroke-width="0.94"/>
      <line id="Line_1264" data-name="Line 1264" x1="35.869" y2="47.229" transform="translate(150.847 263.998)" fill="none" stroke="#060412" stroke-width="0.94"/>
      <path id="Path_159074" data-name="Path 159074" d="M162.01,144.8s-17.461.877-20.266,10.729-2.431,48.573-2.431,48.573,3.682,8.8,15.5,9.934c0,0,6.159,1.426,5.844-11.5S162.01,144.8,162.01,144.8Z" transform="translate(23.281 24.436)" fill="#171032"/>
      <path id="Path_159075" data-name="Path 159075" d="M152.293,146.44a12.249,12.249,0,0,0-2.688,3.506c-3.424,7.363-2.338,27.22-3.822,28.822-1.169,1.321-3.273,1.578-5.306,2.139-.877.234-1.882-.316-1.847-1.169C139.413,162.791,138.092,148.672,152.293,146.44Z" transform="translate(23.168 24.713)" fill="#211d49"/>
      <path id="Path_159076" data-name="Path 159076" d="M139.743,178.07s4.675-1.087,5.517,0c1.169,1.6.713,19.869-.6,20.325s-5.844.105-6.136-.281C137.557,196.77,136.95,178.666,139.743,178.07Z" transform="translate(23.014 29.969)" fill="#211d49"/>
      <path id="Path_159077" data-name="Path 159077" d="M193.391,107.2s4.839,23.539-2.338,26.414-17.707-4.441-20.278-11.9C168.555,115.356,168.847,100.255,193.391,107.2Z" transform="translate(28.446 17.789)" fill="#ffa689"/>
      <path id="Path_159078" data-name="Path 159078" d="M187.144,111.835s1.952,5-1.905,6.183a6.288,6.288,0,0,0-4.056,3.261s-.643-5.026-4.067-5.213c-3.728-.2-3.506,5.119-.245,7.737,0,0,0,6.311-4.839,6.311,0,0-10.928-12.529-6.148-20.091-.7-2.338,2.56-8.45,10.928-9.233s10.776,1.169,17.122-.806C200.024,98.1,204.021,112.689,187.144,111.835Z" transform="translate(27.563 16.845)" fill="#171032"/>
      <path id="Path_159079" data-name="Path 159079" d="M281.538,229.83l21.54,55.96-45.7,43.875" transform="translate(-80.622 -1.724)" fill="none" stroke="#fff" stroke-width="0.25" opacity="0.22"/>
      <path id="Path_159080" data-name="Path 159080" d="M121.772,301.154a5.236,5.236,0,1,1-5.224-5.224,5.236,5.236,0,0,1,5.224,5.224Z" transform="translate(18.556 49.94)" fill="#060412"/>
      <path id="Path_159081" data-name="Path 159081" d="M105.1,293.248a5.236,5.236,0,1,1-1.529-3.71A5.236,5.236,0,0,1,105.1,293.248Z" transform="translate(15.743 48.601)" fill="#060412"/>
      <path id="Path_159082" data-name="Path 159082" d="M143.837,258s1.613,23.375-6.755,36.231S116.5,305.042,116.5,305.042l2.513-3.962s8.824,3.611,14.025-10.168a73.806,73.806,0,0,0,4.184-28.05Z" transform="translate(19.434 43.539)" fill="#aa1625"/>
      <path id="Path_159083" data-name="Path 159083" d="M137.245,252.29a15.275,15.275,0,0,1,9.35,5.481c3.2,3.845-20.769,40.906-26.157,49.088a2.735,2.735,0,0,1-2.98,1.169c-3.857-1.04-12.763-3.8-19.238-8.7C98.255,299.356,123,255.936,137.245,252.29Z" transform="translate(16.349 42.575)" fill="#c31f30"/>
      <path id="Path_159084" data-name="Path 159084" d="M141.4,253.5s-19.682-11.84-30.247-2.01c-7.013,6.522-20.535,24.906-25.713,32.141a4.371,4.371,0,0,0,.479,5.68,85.833,85.833,0,0,0,15.451,11.267,1.6,1.6,0,0,0,2.127-.538C107.716,293.569,128.181,263.1,141.4,253.5Z" transform="translate(14.052 41.782)" fill="#aa1625"/>
      <path id="Path_159085" data-name="Path 159085" d="M97.7,265.363a1.823,1.823,0,0,0-2.513.5c-2.513,3.284-8.754,11.5-9.689,13.055-1.812,3.039,5.61,9.467,14.668,14.247,2.828,1.5,6.288-4.991,9.934-9.958,2.408-3.3,4.488-6.171,4.208-7.246s-5.014-2.606-9.35-5.283a80.737,80.737,0,0,1-7.258-5.318Z" transform="translate(14.156 44.731)" fill="#ce2839"/>
      <path id="Path_159086" data-name="Path 159086" d="M139.565,253.588a41.456,41.456,0,0,0-21.505-6.5c-10.717-.164-22.487,18.385-22.487,18.385-1.519,1.952,16.83,13.067,18.875,10.519a197.778,197.778,0,0,1,20.091-21.236A5.6,5.6,0,0,1,139.565,253.588Z" transform="translate(15.887 41.698)" fill="#ce2839"/>
      <path id="Path_159087" data-name="Path 159087" d="M104.707,293.361l10.916-16.538a1.438,1.438,0,0,1,1.823-.5l10.729,5.084a1.239,1.239,0,0,1,.5,1.8L118.1,299.345a2.338,2.338,0,0,1-2.828.865l-9.724-4.056a1.87,1.87,0,0,1-.841-2.793Z" transform="translate(17.388 46.606)" fill="#aa1625"/>
      <path id="Path_159088" data-name="Path 159088" d="M170.413,134.19s-10.717,1.94-12.471,17.987,0,61.465,0,61.465a28.739,28.739,0,0,0,21.447-1.66,45.464,45.464,0,0,1,14.025-4.219,1.765,1.765,0,0,0,1.379-1.706V195.865c0-14.177-1.566-38.3-7.679-54.85C187.138,140.98,176.841,134.693,170.413,134.19Z" transform="translate(26.296 22.645)" fill="#fa911e"/>
      <path id="Path_159089" data-name="Path 159089" d="M177.658,159.279a24.544,24.544,0,0,0-20.477,8.649c-.105,18.934.76,41.491.76,41.491a27.957,27.957,0,0,0,13.943.818c-5.7-8.707-5.739-16.69-.818-26.484C174.993,175.922,177.658,159.279,177.658,159.279Z" transform="translate(26.297 26.869)" fill="#d07919"/>
      <path id="Path_159090" data-name="Path 159090" d="M157.98,151.735s8.52-13.85,14.738-11.512c7.655,2.875,9.21,17.672-2.267,33.169l-6.1,6.463-1.578,5.762s15.568-13.745,19.238-27.08-1.169-18.7-7.854-20.932c-8.181-2.817-12.19,2.209-17.216,9.163Z" transform="translate(26.258 23.087)" fill="#171032"/>
      <path id="Path_159091" data-name="Path 159091" d="M157.937,161.82a174.227,174.227,0,0,0-3.506,25.631c-.725,12.038-.842,26.881-.865,31.241a2.8,2.8,0,0,1-.83,2.01,12.915,12.915,0,0,0-3.717,10.449c.164,1.952,1.017,4.675,5.844,6.194.678.21,2.431.947,2.431-2.454a8.614,8.614,0,0,1,2.77-6.826c1.391-1.169,2.8,1.858,2.8,4.3s1.636.888,1.963-.842.07-6.381-3.6-11.22c0,0-.058-.841.4-6.662s1.438-25.537,3.506-30.575,8.111-19.4,8.111-19.4Z" transform="translate(24.91 27.308)" fill="#ffa689"/>
      <path id="Path_159092" data-name="Path 159092" d="M154.25,173.136a41.07,41.07,0,0,0,15.918,3.319s6.568-11.267,9.1-19.3,2.992-16.561-6.744-18.314S157.125,148.6,154.25,173.136Z" transform="translate(25.804 23.401)" fill="#fa911e"/>
      <path id="Path_159093" data-name="Path 159093" d="M173.243,291.654a12.249,12.249,0,0,0-1.321,9.163,1.718,1.718,0,0,0,1.648,1.356h27.77a.993.993,0,0,0,.947-1.169c-.187-1.578-1.484-4.313-8.076-5.131a10.063,10.063,0,0,1-4.979-2.022c-2.338-1.858-5.984-4.406-7.246-3.693a13.581,13.581,0,0,1-8.742,1.5Z" transform="translate(28.725 48.945)" fill="#171032"/>
      <path id="Path_159094" data-name="Path 159094" d="M171.048,131.6c-.993,0-2.548,3.027-2.548,3.027s2.945,2.267,10.1,4.885a11.688,11.688,0,0,1,5.727,3.985.432.432,0,0,0,.783-.187c.21-1.589.3-4.383-1.239-6C183.869,137.315,174.028,134.627,171.048,131.6Z" transform="translate(28.209 22.208)" fill="#d07919"/>
      <path id="Path_159095" data-name="Path 159095" d="M150.322,277.94a12.237,12.237,0,0,0-7.714,5.107,1.707,1.707,0,0,0,.082,2.127l18.455,20.745a1.005,1.005,0,0,0,1.5-.058c1.064-1.169,2.244-3.974-1.531-9.444a10.04,10.04,0,0,1-1.8-5.061c-.187-3.015-.69-7.41-2.057-7.877A13.546,13.546,0,0,1,150.322,277.94Z" transform="translate(23.783 46.904)" fill="#171032"/>
      <path id="Path_159096" data-name="Path 159096" d="M265.077,255.89l4.359,3.319-.351,1.94-5.1-2.548Z" transform="translate(-79.506 2.674)" fill="#060412"/>
      <path id="Path_159097" data-name="Path 159097" d="M61.253,255.859c0,1.251-6.837,2.267-15.276,2.267S30.69,257.11,30.69,255.859s6.849-2.279,15.287-2.279S61.253,254.6,61.253,255.859Z" transform="translate(4.953 42.793)" fill="#1c163f"/>
      <ellipse id="Ellipse_2383" data-name="Ellipse 2383" cx="28.705" cy="3.308" rx="28.705" ry="3.308" transform="translate(22.214 347.05)" fill="#ebf1ff"/>
      <path id="Path_159098" data-name="Path 159098" d="M47.17,265.446s-3.167-9.525.877-13.838S45.616,240.014,55.2,235.9s9.257-13.721,17.59-13.756,14.9-3.927,17.625-.245-9.923,5.481-9.946,11.688-1.262,6.849-4.675,10.753c-1.917,2.186-1.017,7.013-5.271,11.688C67.109,259.743,58.332,258.516,47.17,265.446Z" transform="translate(7.535 37.179)" fill="#0fb997"/>
      <path id="Path_159099" data-name="Path 159099" d="M47,265.218s3.985-9.56,13.184-14.633,5.949-25.713,30.06-28.915" transform="translate(7.705 37.408)" fill="none" stroke="#fff" stroke-linecap="round" stroke-linejoin="round" stroke-width="0.4"/>
      <path id="Path_159100" data-name="Path 159100" d="M55.185,275.219s-1.683-13.639,1.4-24.544-1.964-14.528-10.612-17.321-3.214-11.863-5.844-20.278-9.034,4.675-11.185-6.814-5.423-17.379-8.041-16.889S17.4,192.4,15.553,205.515s-10.986,12.143-3.086,22.534S22.378,235.5,18,244.528C8.681,263.742,42.236,258.05,55.185,275.219Z" transform="translate(1.343 31.953)" fill="#049679"/>
      <path id="Path_159101" data-name="Path 159101" d="M53.6,275.222s-4.3-22.943-16.7-34.268S16.279,217.509,19.364,189.33" transform="translate(2.932 31.95)" fill="none" stroke="#fff" stroke-linecap="round" stroke-linejoin="round" stroke-width="0.48"/>
      <path id="Path_159102" data-name="Path 159102" d="M52.409,267.021s-13.464-35.67-22.732-33.426-10.2,2.782-18.642-4.021-14.6.619-8.181,6.019,6.685,5.844.526,11.863,8.544,12.623,21.47,10.612S50.376,264.075,52.409,267.021Z" transform="translate(-0.194 38.282)" fill="#0fb997"/>
      <path id="Path_159103" data-name="Path 159103" d="M52.4,266.489a33.824,33.824,0,0,0-23.317-16.7C12.083,246.363,20.03,235.143.22,230" transform="translate(-0.189 38.814)" fill="none" stroke="#fff" stroke-linecap="round" stroke-linejoin="round" stroke-width="0.44"/>
      <path id="Path_159104" data-name="Path 159104" d="M45.9,257.718c-7.071,0-13.008-.713-14.75-1.683,1.73,2.244,7.281,12.237,10.577,50.677,0,.561,1.87,1.017,4.172,1.017s4.161-.456,4.161-1.017c3.3-38.44,8.847-48.375,10.577-50.712C58.9,257.005,52.959,257.718,45.9,257.718Z" transform="translate(5.03 43.201)" fill="#2e2c60"/>
    </g>
  </g>
</svg>
